<svg width="50" height="13" viewBox="0 0 50 13" fill="none" xmlns="http://www.w3.org/2000/svg">
<path d="M18.7407 9.67114C17.227 9.67114 16 8.44409 16 6.93045C16 5.61841 16.9299 4.49042 18.2178 4.2401L28.0157 2.33585C28.6217 2.21807 28.9247 2.15918 29.1902 2.1551C30.3805 2.13683 31.469 2.82402 31.9643 3.90648C32.0748 4.14799 32.1519 4.44686 32.3061 5.0446C32.5105 5.83649 32.6127 6.23243 32.6253 6.55323C32.6825 8.00869 31.686 9.29498 30.2624 9.6032C29.9486 9.67114 29.5397 9.67114 28.7219 9.67114H18.7407ZM6 12.2222C3.17157 12.2222 1.75736 12.2222 0.87868 11.3435C0 10.4649 0 9.05064 0 6.22222V6C0 3.17157 0 1.75736 0.87868 0.87868C1.75736 0 3.17157 0 6 0H44C46.8284 0 48.2426 0 49.1213 0.87868C50 1.75736 50 3.17157 50 6V6.22222C50 9.05065 50 10.4649 49.1213 11.3435C48.2426 12.2222 46.8284 12.2222 44 12.2222H6Z" fill="#797979"/>
</svg>
