<svg width="50" height="50" viewBox="0 0 50 50" fill="none" xmlns="http://www.w3.org/2000/svg">
<path d="M24.5644 50C21.7359 50 20.3217 50 19.443 49.1213C18.5644 48.2426 18.5644 46.8284 18.5644 44V6C18.5644 3.17157 18.5644 1.75736 19.443 0.87868C20.3217 0 21.7359 0 24.5644 0H25.4356C28.2641 0 29.6783 0 30.557 0.87868C31.4356 1.75736 31.4356 3.17157 31.4356 6V44C31.4356 46.8284 31.4356 48.2426 30.557 49.1213C29.6783 50 28.2641 50 25.4356 50H24.5644ZM6 31.1111C3.17157 31.1111 1.75736 31.1111 0.87868 30.2324C0 29.3538 0 27.9395 0 25.1111V24.8889C0 22.0605 0 20.6463 0.87868 19.7676C1.75736 18.8889 3.17157 18.8889 6 18.8889H44C46.8284 18.8889 48.2426 18.8889 49.1213 19.7676C50 20.6463 50 22.0605 50 24.8889V25.1111C50 27.9395 50 29.3538 49.1213 30.2324C48.2426 31.1111 46.8284 31.1111 44 31.1111H6Z" fill="#26DC64"/>
</svg>
