<svg width="600" height="190" viewBox="0 0 600 190" fill="none" xmlns="http://www.w3.org/2000/svg">
<g filter="url(#filter0_d_44_729)">
<path d="M463.32 72.0923L450.189 121.31L555.235 140.343L580 97.5726L562.182 68.22L463.32 72.0923Z" fill="#1C323D"/>
<path d="M471.321 96.0873L472.543 113.719L538.113 109.745L530.581 136.706L562.279 100.998L525.857 76.6602L537.147 100.23L471.321 96.0873Z" fill="#E2255F"/>
<path d="M472.453 91.6522L473.691 109.299L539.245 105.31L531.713 132.287L563.411 96.5781L526.989 72.2405L538.279 95.8108L472.453 91.6522Z" fill="#FFDF07"/>
<path d="M254.355 144.67C257.117 145.33 259.789 146.266 262.506 147.079C265.464 147.969 268.815 148.246 271.608 149.55C273.283 150.333 274.762 151.622 276.272 152.834L284.257 155.182C286.4 154.568 288.559 153.386 290.34 152.865C294.355 151.683 298.747 152.174 302.883 151.975C308.015 151.729 313.132 151.253 318.219 150.624C320.423 150.348 348.664 155.519 350.868 155.197L374.128 30.9924L240.936 24.041L252.302 144.302C252.981 144.409 253.661 144.532 254.34 144.701L254.355 144.67Z" fill="#00D4CF"/>
<path d="M326.235 134.987C319.759 134.987 314.899 132.854 311.789 128.65C308.921 124.752 307.457 119.841 307.457 114.041C307.457 111.662 307.729 108.962 308.272 106.046C308.785 103.284 309.329 100.583 309.887 97.9744C310.461 95.2889 310.868 93.5549 311.08 92.803C311.835 89.3964 312.589 85.8669 313.299 82.3682C313.963 79.0997 314.295 76.4756 314.295 74.5575C314.295 70.1074 312.982 70.1074 312.197 70.1074C311.201 70.1074 309.676 70.3836 307.865 72.7314C306.114 75.0025 304.665 78.0715 303.578 81.8618L292.71 134.036H263.85L281.435 49.7442H310.295L309.736 52.4143C313.57 50.2199 317.751 49.1304 322.25 49.1304C328.287 49.1304 333.208 50.8951 336.891 54.3938C340.635 57.9539 342.536 63.2173 342.536 70.0767C342.536 73.2685 342.159 76.8439 341.404 80.7263C340.68 84.4245 339.653 88.9974 338.31 94.3068C337.51 97.4833 336.785 100.552 336.121 103.56C335.367 107.028 335.216 108.992 335.216 110.02C335.216 111.233 335.427 112.153 335.819 112.629C335.94 112.783 336.544 113.074 337.918 113.074C340.378 113.074 341.072 112.721 341.102 112.706L347.216 108.563L346.325 115.99C345.616 122.112 343.351 126.885 339.593 130.123C335.88 133.345 331.367 134.972 326.204 134.972L326.235 134.987Z" fill="#F0EDE4"/>
<path d="M319.457 129.248C312.604 129.248 307.442 126.961 304.121 122.45C301.102 118.353 299.562 113.197 299.562 107.151C299.562 104.695 299.849 101.933 300.408 98.9408C300.921 96.1634 301.464 93.4626 302.038 90.8385C302.626 88.1071 303.034 86.3731 303.245 85.6058C303.985 82.2759 304.74 78.7465 305.449 75.2631C306.098 72.0713 306.43 69.5086 306.43 67.6825C306.43 65.3194 305.977 64.5368 305.887 64.414C305.887 64.414 305.721 64.3986 305.479 64.3986C304.996 64.3986 303.728 64.3986 302.038 66.593C300.377 68.7414 299.004 71.6876 297.947 75.3398L286.913 128.342H255.743L273.796 41.7337H304.966L304.604 43.4524C308 41.9025 311.653 41.1199 315.532 41.1199C321.872 41.1199 327.049 42.992 330.943 46.6902C334.928 50.4651 336.951 56.0355 336.951 63.2171C336.951 66.4856 336.558 70.1378 335.804 74.0815C335.079 77.8104 334.038 82.3833 332.709 87.7235C331.909 90.8846 331.185 93.9536 330.536 96.946C329.811 100.322 329.645 102.194 329.645 103.161C329.645 104.189 329.826 104.757 329.947 104.987C329.947 104.987 329.962 104.987 329.977 104.987C330.098 104.987 330.491 105.079 331.215 105.079C333.253 105.079 333.887 104.833 333.917 104.818L342.053 99.2938L340.725 109.284C339.985 115.713 337.585 120.716 333.615 124.168C329.691 127.56 324.936 129.294 319.487 129.294L319.457 129.248Z" fill="#F0EDE4"/>
<path d="M307.728 119.687C305.298 116.388 304.076 112.199 304.076 107.15C304.076 104.987 304.332 102.531 304.83 99.8C305.344 97.0685 305.872 94.4138 306.43 91.8204C306.989 89.2424 307.366 87.5851 307.578 86.8639C308.393 83.2578 309.147 79.6823 309.857 76.1836C310.566 72.6849 310.928 69.846 310.928 67.667C310.928 62.4036 309.102 59.7642 305.449 59.7642C302.808 59.7642 300.468 61.0839 298.445 63.7079C296.408 66.3473 294.793 69.7693 293.57 74.0046L283.215 123.693H261.283L277.419 46.291H299.351L297.676 54.3319C302.747 48.5621 308.695 45.6619 315.487 45.6619C320.664 45.6619 324.77 47.1043 327.819 49.9892C330.868 52.8741 332.393 57.2629 332.393 63.1555C332.393 66.1478 332.03 69.4777 331.321 73.1452C330.611 76.8128 329.6 81.2782 328.272 86.5417C327.457 89.7488 326.717 92.8639 326.068 95.9023C325.404 98.9406 325.072 101.35 325.072 103.099C325.072 105.155 325.525 106.767 326.445 107.902C327.366 109.038 328.936 109.606 331.17 109.606C333.6 109.606 335.276 109.299 336.196 108.67C335.593 113.933 333.736 117.907 330.642 120.593C327.547 123.278 323.819 124.613 319.442 124.613C314.053 124.613 310.159 122.956 307.713 119.657L307.728 119.687Z" fill="#1A1617"/>
<path d="M198.008 25.9282C202.642 27.1558 248.83 25.9282 248.83 25.9282V147.908H204.015L198.008 25.9282Z" fill="#1C323D"/>
<path d="M238.521 132.624H213.947V130.184H218.657V40.706H213.947V38.2661H238.521V40.706H233.811V130.184H238.521V132.624Z" fill="#8C72C9"/>
<path d="M225.646 80.4501L226.234 44.2966L226.823 80.4501H225.646Z" fill="white"/>
<path d="M226.823 90.9922L226.234 127.13L225.646 90.9922H226.823Z" fill="white"/>
<path d="M226.234 87.57C227.184 87.57 227.955 86.7868 227.955 85.8206C227.955 84.8545 227.184 84.0713 226.234 84.0713C225.284 84.0713 224.513 84.8545 224.513 85.8206C224.513 86.7868 225.284 87.57 226.234 87.57Z" fill="white"/>
<path d="M111.004 18.7164L119.819 148.691C119.819 148.691 211.124 149.105 210.324 144.21C209.524 139.299 197.132 26.9875 197.132 26.9875L170.898 16.2151L111.004 18.7164Z" fill="#0072BB"/>
<path d="M210.309 144.21C209.811 141.141 204.77 95.9795 201.072 62.6189L183.351 44.4962C182.672 43.6829 181.962 42.9002 181.192 42.1176C173.721 34.5217 164.724 30.7314 154.158 30.7314H129.781V130.844L147.23 148.583C174.053 148.292 210.838 147.325 210.324 144.21H210.309Z" fill="#002C47"/>
<path d="M175.698 130.859L158.234 108.517H143.668V130.859H129.766V30.7314H154.143C164.694 30.7314 173.705 34.5217 181.177 42.1176C188.649 49.7135 192.377 58.8593 192.377 69.601C192.377 80.3427 188.649 89.5499 181.177 97.1458C178.566 99.7545 175.683 101.98 172.513 103.821L193.404 130.875H175.713L175.698 130.859Z" fill="#FFDF07"/>
<path d="M177.449 127.177L161.071 106.23C160.377 105.356 159.336 104.834 158.234 104.834H143.668C141.675 104.834 140.045 106.476 140.045 108.517V127.177H133.373V34.4146H154.128C163.773 34.4146 171.773 37.7905 178.596 44.7266C185.419 51.6626 188.739 59.7956 188.739 69.6013C188.739 79.4069 185.419 87.6013 178.596 94.5373C176.241 96.9005 173.57 98.9414 170.702 100.614C169.781 101.151 169.147 102.057 168.936 103.1C168.739 104.143 168.996 105.233 169.645 106.077L185.932 127.177H177.434H177.449Z" fill="#FFDF07"/>
<path d="M138.037 39.4631H158.792C167.728 39.4631 175.245 42.3634 181.735 48.302C180.784 47.0744 179.758 45.8775 178.626 44.7266C171.803 37.7905 163.803 34.4146 154.158 34.4146H133.403V127.177H138.052V39.4631H138.037Z" fill="#FFA407"/>
<path d="M165.721 111.279C165.298 110.742 164.74 110.358 164.121 110.128L177.449 127.177H178.143L165.721 111.279Z" fill="#FFA407"/>
<path d="M156.136 87.0794C163.744 87.0794 169.902 80.8185 169.902 73.0845C169.902 65.3505 163.744 59.0896 156.136 59.0896H151.412V87.0794H156.136Z" fill="#FB882D"/>
<path d="M20 19.8824L36.9509 160L103.004 148.399L125.66 10L20 19.8824Z" fill="#FF617E"/>
<path d="M50.6717 145.161C51.3056 131.673 51.849 118.491 52.2868 105.617C52.4377 100.246 52.6038 94.5681 52.7547 88.5835C52.9056 82.6142 53.0264 76.7523 53.1321 70.9825C53.2226 65.2126 53.2981 59.6576 53.3736 54.2868C53.434 48.9466 53.434 44.0669 53.3736 39.6474L53.3434 37.6065L55.1245 36.6858C57.766 35.3047 60.4377 34.0464 63.0641 32.9262C65.6302 31.8213 68.3472 30.7625 71.1396 29.7497C74.0075 28.7216 76.7849 27.9697 79.4264 27.5093C84.1509 26.6807 88.3773 26.8034 91.9849 27.8776C95.6075 28.9671 98.7472 30.7779 101.328 33.2638C103.849 35.7037 105.887 38.742 107.366 42.2868C108.77 45.6474 109.826 49.3763 110.506 53.3661C111.487 59.1359 111.396 64.9671 110.219 70.7062C109.057 76.384 107.064 81.6781 104.287 86.4505C101.479 91.2536 97.9773 95.3507 93.8566 98.65C89.8868 101.811 85.5094 103.913 80.8151 104.896C80.6943 107.52 80.6339 110.312 80.6339 113.213C80.6339 117.156 80.6641 120.793 80.7396 124.123C80.7396 128.159 80.7698 132.103 80.8604 136.016L80.9056 138.317L50.4302 150.164L50.6717 145.177V145.161ZM81.6 53.0745C81.6 58.1538 81.5849 63.0336 81.5245 67.6832C81.4792 71.2126 81.4189 74.8955 81.3585 78.7318C81.9622 77.7344 82.5207 76.6142 83.0339 75.3865C83.9547 73.1768 84.5736 70.6295 84.8755 67.806C85.1924 64.9825 85.0868 62.0515 84.5887 59.1052C84.1207 56.3584 83.2453 54.4249 82.0075 53.3968C81.8717 53.2894 81.7358 53.1819 81.6151 53.0899L81.6 53.0745Z" fill="#1A1617"/>
<path d="M42.1738 139.775C42.8078 126.287 43.3512 113.105 43.7889 100.246C43.9399 94.8903 44.1059 89.2125 44.2569 83.2278C44.4078 77.2585 44.5286 71.3966 44.6342 65.6422C44.7248 59.8724 44.8003 54.3174 44.8757 48.9465C44.9361 43.6217 44.9361 38.7573 44.8757 34.3378L44.8304 31.6217L47.2154 30.3941C49.887 28.9977 52.5889 27.724 55.2304 26.5885C57.8267 25.4836 60.5587 24.4094 63.3663 23.3967C66.2795 22.3532 69.1323 21.5859 71.8342 21.1102C76.7248 20.2509 81.1172 20.389 84.8757 21.5092C88.6644 22.6447 91.955 24.5475 94.6569 27.1409C97.2833 29.6882 99.4116 32.8493 100.951 36.5169C102.385 39.9542 103.472 43.7752 104.166 47.8417C105.163 53.7496 105.072 59.7189 103.88 65.5961C102.702 71.3967 100.664 76.8135 97.8267 81.678C94.9587 86.6038 91.3663 90.8084 87.1399 94.1844C83.2757 97.2688 79.0191 99.3711 74.4757 100.445C74.3852 102.808 74.3399 105.294 74.3399 107.888C74.3399 111.816 74.3701 115.438 74.4455 118.768C74.4455 122.819 74.4757 126.747 74.5663 130.675L74.6267 133.744L41.9172 146.45L42.2342 139.791L42.1738 139.775ZM75.2455 50.8647C75.2455 54.8238 75.2154 58.6601 75.1701 62.3583C75.1399 64.3225 75.1097 66.3174 75.0795 68.3736C75.6984 66.5629 76.1361 64.5373 76.3776 62.3429C76.6795 59.6268 76.5889 56.8033 76.0908 53.9491C75.8795 52.7521 75.5927 51.7087 75.2304 50.8647H75.2455Z" fill="#1A1617"/>
<path d="M46.4604 139.99C47.0944 126.486 47.6378 113.289 48.0906 100.399C48.2567 95.0129 48.4076 89.3198 48.5586 83.3504C48.7095 77.3658 48.8303 71.4886 48.9359 65.7187C49.0265 59.9489 49.102 54.3786 49.1774 49.0077C49.2378 43.6369 49.2378 38.7264 49.1774 34.2763C51.7737 32.9259 54.3548 31.6983 56.9057 30.6088C59.4567 29.5192 62.0831 28.4911 64.8001 27.509C67.5171 26.5423 70.0982 25.8364 72.5737 25.4067C76.8454 24.6548 80.5435 24.7469 83.6831 25.6829C86.8227 26.619 89.4944 28.1535 91.7133 30.3019C93.9321 32.4502 95.6982 35.0896 97.0114 38.2354C98.3246 41.3811 99.3057 44.8338 99.9397 48.5934C100.86 53.9949 100.77 59.3658 99.6831 64.7213C98.5963 70.0768 96.7397 74.9873 94.1284 79.4681C91.5171 83.9489 88.302 87.7085 84.4831 90.7622C80.6491 93.8159 76.468 95.7494 71.9246 96.5474L70.3548 96.8236C70.1586 100.23 70.0529 103.928 70.0378 107.903C70.0378 111.877 70.068 115.545 70.1435 118.905C70.1435 122.88 70.1737 126.839 70.2642 130.798L46.5057 140.036L46.4604 139.99ZM70.8982 62.3121C70.8227 68.1893 70.7171 74.4502 70.5812 81.1254C72.0303 80.4809 73.4642 79.2993 74.8831 77.6113C76.302 75.9233 77.5397 73.821 78.5661 71.3044C79.6076 68.7878 80.302 65.9643 80.634 62.8338C80.9812 59.688 80.8755 56.4962 80.3171 53.2123C79.7133 49.6522 78.4755 47.0896 76.5888 45.5244C74.7171 43.9745 72.8303 43.3607 70.9284 43.6829C70.9586 50.22 70.9435 56.4348 70.868 62.2967L70.8982 62.3121Z" fill="#FBF3F0"/>
<path d="M443.683 155.197C455.638 110.113 462.279 75.9542 473.781 30.7471C438.898 32.9721 399.955 35.6729 365.162 32.2049C355.849 69.4018 349.374 107.427 345.811 145.76C379.411 152.374 410.083 148.583 443.683 155.197Z" fill="#358DBB"/>
<path d="M371.049 144.333L373.902 134.65L383.276 131.151L400.227 75.3403H392.966L378.008 93.6012L364.272 92.8799L379.789 53.0129H390.249L393.947 58.3684H445.223L452.257 53.0129H463.351L457.51 93.3557H444.891L441.706 75.3403H432.197L415.004 131.918L422.913 135.095L420.302 144.333H371.049Z" fill="#231F20"/>
<path d="M364.74 139.959L368.045 128.742L377.434 125.243L393.902 70.9671H388.211L373.238 89.2587L357.887 88.4454L374.053 46.9058H385.54L389.238 52.2459H439.789L446.808 46.9058H459.185L453.102 88.9825H439.019L435.834 70.9671H427.683L410.898 126.164L418.793 129.325L415.789 139.959H364.74Z" fill="#FFD06A"/>
<path d="M442.415 67.4835H379.411L389.132 64.3991L371.698 85.6677L362.838 85.2073L376.393 50.3889H383.774L388.921 57.8314L380.513 55.7444H447.623L438.189 57.8314L447.97 50.3889H455.23L450.144 85.4989H441.902L437.962 63.2329L442.43 67.4682L442.415 67.4835ZM400.227 62.0206H426.808L406.687 128.22L414.627 131.412L413.193 136.461H369.344L370.838 131.412L380.211 127.929L400.211 62.0206H400.227Z" fill="#0F4A54"/>
</g>
<defs>
<filter id="filter0_d_44_729" x="0" y="0" width="600" height="190" filterUnits="userSpaceOnUse" color-interpolation-filters="sRGB">
<feFlood flood-opacity="0" result="BackgroundImageFix"/>
<feColorMatrix in="SourceAlpha" type="matrix" values="0 0 0 0 0 0 0 0 0 0 0 0 0 0 0 0 0 0 127 0" result="hardAlpha"/>
<feOffset dy="10"/>
<feGaussianBlur stdDeviation="10"/>
<feComposite in2="hardAlpha" operator="out"/>
<feColorMatrix type="matrix" values="0 0 0 0 0 0 0 0 0 0 0 0 0 0 0 0 0 0 0.75 0"/>
<feBlend mode="normal" in2="BackgroundImageFix" result="effect1_dropShadow_44_729"/>
<feBlend mode="normal" in="SourceGraphic" in2="effect1_dropShadow_44_729" result="shape"/>
</filter>
</defs>
</svg>
