<svg width="1214" height="962" viewBox="0 0 1214 962" fill="none" xmlns="http://www.w3.org/2000/svg">
<g style="mix-blend-mode:multiply">
<g filter="url(#filter0_i_36_109)">
<path d="M1 202.869L29.6656 96.7009L102.587 31.9034L311.795 1L571.294 62.3084L851.412 42.3707L1102.36 17.4486L1194.9 96.7009V211.841L1192.88 352.402L1213 572.215L1165.73 858.321L1192.88 948.539L1053.08 939.567L689.476 948.539L389.745 921.623L195.121 961L29.6656 939.567L71.9095 683.866L29.6656 537.822L42.7411 316.514L1 202.869Z" fill="#B4B4B4"/>
</g>
<path d="M1 202.869L29.6656 96.7009L102.587 31.9034L311.795 1L571.294 62.3084L851.412 42.3707L1102.36 17.4486L1194.9 96.7009V211.841L1192.88 352.402L1213 572.215L1165.73 858.321L1192.88 948.539L1053.08 939.567L689.476 948.539L389.745 921.623L195.121 961L29.6656 939.567L71.9095 683.866L29.6656 537.822L42.7411 316.514L1 202.869Z" stroke="black"/>
</g>
<defs>
<filter id="filter0_i_36_109" x="0.47583" y="0.491394" width="1213.03" height="961.015" filterUnits="userSpaceOnUse" color-interpolation-filters="sRGB">
<feFlood flood-opacity="0" result="BackgroundImageFix"/>
<feBlend mode="normal" in="SourceGraphic" in2="BackgroundImageFix" result="shape"/>
<feColorMatrix in="SourceAlpha" type="matrix" values="0 0 0 0 0 0 0 0 0 0 0 0 0 0 0 0 0 0 127 0" result="hardAlpha"/>
<feOffset/>
<feGaussianBlur stdDeviation="25"/>
<feComposite in2="hardAlpha" operator="arithmetic" k2="-1" k3="1"/>
<feColorMatrix type="matrix" values="0 0 0 0 0 0 0 0 0 0 0 0 0 0 0 0 0 0 1 0"/>
<feBlend mode="normal" in2="shape" result="effect1_innerShadow_36_109"/>
</filter>
</defs>
</svg>
