<svg width="410" height="186" viewBox="0 0 410 186" fill="none" xmlns="http://www.w3.org/2000/svg">
<g filter="url(#filter0_d_39_266)">
<path d="M29.3006 20.5806L17.0506 54.5199L10 171L84.9969 149.5L95.8071 40.4475L29.3006 20.5806Z" fill="#7F256F"/>
<path d="M75.8208 73.0603L76.3579 54.8489L73.1811 50.4605L36.9111 49.4172L34.34 137.095L37.5053 141.483L56.4745 142.028L57.6287 102.883L74.0153 103.348L74.541 85.3297L71.3756 80.9526L58.28 80.5784L58.52 72.5613L75.8208 73.0603Z" fill="white"/>
<path d="M35.0942 136.392L37.6311 50.1543L72.427 51.1635L71.9356 67.9234L54.6348 67.4245L54.2349 81.1794L70.6215 81.6556L70.1301 98.2228L53.7435 97.7465L52.5893 136.902L35.0942 136.392Z" fill="#EB1B69"/>
<path d="M53.2977 137.65L34.3285 137.106L36.911 49.4172L73.1811 50.4718L72.644 68.6945L55.3432 68.1956L54.9775 80.499L71.3642 80.9753L70.8385 98.9939L54.4518 98.5176L53.2977 137.673V137.65ZM35.8369 135.689L51.8693 136.154L53.0234 96.9981L69.4101 97.4743L69.8558 82.37L53.4691 81.8938L53.9148 66.6874L71.2156 67.1863L71.6613 51.8779L38.328 50.9141L35.8369 135.689Z" fill="white"/>
<path d="M324.638 36.6033L223.827 49.349L239.47 142.379L336.579 132.253L324.638 36.6033Z" fill="#1FA59A"/>
<path d="M298.766 127.898H318.056C322.661 127.898 324.295 125.075 324.295 122.671C324.295 120.539 322.981 117.953 319.301 117.681L317.838 117.568L317.781 115.731V71.8126C317.816 71.1322 317.873 70.5879 317.964 70.1117L318.204 68.8757L319.473 68.8076C323.381 68.5922 324.775 66.0861 324.775 63.8069C324.775 60.6658 322.649 58.5566 319.484 58.5566C319.313 58.5566 319.13 58.5566 318.947 58.5793H306.377C306.114 58.5793 305.931 58.568 305.748 58.568C302.035 58.568 299.235 60.3483 297.658 63.7048C297.624 63.7955 297.578 63.8749 297.555 63.9656L284.928 98.2225L270.815 62.911C270.667 62.5482 270.461 62.2193 270.187 61.9245C268.279 59.9174 265.719 58.7948 262.599 58.5793H262.382H249.366C249.298 58.5793 249.229 58.5793 249.149 58.5793C243.333 58.9875 242.876 62.6842 242.876 63.8069C242.876 65.3717 243.584 66.7551 244.83 67.617C245.664 68.1953 246.738 68.5128 247.995 68.5808L249.298 68.6489L249.515 69.9302C249.584 70.3044 249.606 70.7467 249.606 71.2343V114.778C249.606 115.311 249.572 115.719 249.526 116.014L249.344 117.386L247.949 117.42C244.041 117.511 242.384 119.892 242.144 122.092C242.133 122.206 242.122 122.319 242.122 122.432C242.122 124.961 243.836 127.909 248.669 127.909L264.348 127.671H264.439C264.85 127.728 265.239 127.739 265.605 127.739C269.935 127.739 271.467 124.882 271.467 122.432C271.467 122.308 271.467 122.172 271.444 122.047C271.272 120.72 270.29 117.59 264.896 117.454L264.622 117.42C264.313 117.364 264.085 117.296 263.936 117.25L264.245 115.753L262.725 116.264C262.691 116.162 262.645 116.06 262.622 115.935L262.451 115.323L262.553 115.186V87.9942L277.055 123.566C277.192 123.884 277.363 124.179 277.592 124.44C279.1 126.152 280.677 126.515 281.728 126.515C282.677 126.515 284.094 126.22 285.499 124.836C285.819 124.519 286.071 124.133 286.219 123.714L299.075 88.924L298.995 115.81C298.983 116.082 298.961 116.241 298.949 116.388L298.778 117.613L297.544 117.772C292.333 118.441 291.761 121.582 291.761 122.909C291.761 124.077 292.264 127.898 298.721 127.898H298.766Z" fill="#FDCA57"/>
<path d="M297.018 122.194C294.367 122.194 293.041 121.537 293.041 120.221C293.041 118.906 294.367 118.169 297.018 117.999C299.178 117.67 300.332 116.026 300.503 113.055L300.629 67.1295L281.1 119.961C279.934 121.117 278.78 121.027 277.614 119.711L256.463 67.8666V112.556C256.623 115.515 258.371 117.25 261.685 117.738C264.176 117.738 265.502 118.396 265.662 119.711C265.662 121.525 264.336 122.263 261.685 121.934L245.264 122.183C242.944 122.183 241.779 121.355 241.779 119.711C241.939 118.226 243.184 117.568 245.515 117.738C248.167 117.579 249.492 115.595 249.492 111.807V66.8687C249.492 63.4101 248.246 61.437 245.755 60.9494C243.596 61.1082 242.521 60.5412 242.521 59.2258C242.521 57.9104 243.687 57.1734 246.007 57.0033H259.445C261.845 57.1734 263.753 57.9898 265.17 59.4753L282.837 103.666L298.755 60.4618C299.909 57.9898 301.909 56.8445 304.72 57.0033H317.907C319.735 56.8445 320.638 57.5816 320.638 59.2258C320.638 60.7113 319.472 61.369 317.153 61.1989C314.833 61.369 313.587 63.4215 313.416 67.3676V112.794C313.416 116.082 314.582 117.817 316.901 117.976C319.061 117.817 320.135 118.475 320.135 119.949C320.135 121.423 319.061 122.172 316.901 122.172H296.995L297.018 122.194Z" fill="#E2255F"/>
<path d="M85.4884 40.3455L92.6304 143.252C92.6304 143.252 166.69 143.581 166.039 139.703C165.388 135.813 155.343 46.8884 155.343 46.8884L134.066 38.3611L85.4884 40.3455Z" fill="#0072BB"/>
<path d="M166.05 139.703C165.639 137.276 161.548 101.511 158.554 75.1013L144.179 60.7454C143.63 60.1103 143.047 59.4753 142.43 58.863C136.374 52.853 129.072 49.848 120.501 49.848H100.721V129.123L114.868 143.161C136.625 142.935 166.462 142.163 166.05 139.691V139.703Z" fill="#002C47"/>
<path d="M137.974 129.123L123.815 111.433H112V129.123H100.721V49.8594H120.501C129.06 49.8594 136.374 52.8644 142.43 58.8743C148.487 64.8843 151.515 72.1303 151.515 80.635C151.515 89.1397 148.487 96.431 142.43 102.441C140.316 104.505 137.974 106.274 135.402 107.725L152.349 129.146H137.996L137.974 129.123Z" fill="#FFDF07"/>
<path d="M139.391 126.209L126.112 109.619C125.552 108.927 124.707 108.519 123.815 108.519H111.999C110.377 108.519 109.063 109.823 109.063 111.433V126.209H103.658V52.7736H120.501C128.329 52.7736 134.82 55.4384 140.35 60.938C145.881 66.4264 148.578 72.8673 148.578 80.6349C148.578 88.4025 145.893 94.8887 140.35 100.377C138.442 102.248 136.282 103.87 133.94 105.185C133.197 105.605 132.671 106.319 132.511 107.158C132.351 107.986 132.557 108.848 133.083 109.517L146.293 126.22H139.391V126.209Z" fill="#FFDF07"/>
<path d="M107.417 56.7653H124.25C131.494 56.7653 137.597 59.0559 142.853 63.7618C142.088 62.7866 141.253 61.8454 140.328 60.9269C134.797 55.4386 128.306 52.7625 120.479 52.7625H103.635V126.209H107.406V56.7653H107.417Z" fill="#FFA407"/>
<path d="M129.883 113.622C129.54 113.202 129.095 112.896 128.592 112.715L139.402 126.209H139.973L129.895 113.622H129.883Z" fill="#FFA407"/>
<path d="M122.113 94.4693C128.283 94.4693 133.277 89.5139 133.277 83.3905C133.277 77.2672 128.283 72.3118 122.113 72.3118H118.273V94.4693H122.113Z" fill="#FB882D"/>
<path d="M329.322 71.3025L324.774 135.915L390.035 139.794L400 112.023L386.904 68.1161L339.047 71.3025H329.322Z" fill="#F14174"/>
<path d="M393.898 106.376C393.898 106.943 393.875 107.499 393.841 108.066C393.806 108.632 393.784 109.188 393.784 109.755L347.435 110.719C348.417 115.459 350.657 118.951 354.154 121.208C357.639 123.453 361.593 124.587 365.992 124.587C368.118 124.587 370.278 124.429 372.483 124.1C374.689 123.782 376.848 123.261 378.974 122.535C381.099 121.809 383.111 120.868 385.007 119.7C386.904 118.532 388.618 117.149 390.127 115.538C389.293 118.917 387.887 121.888 385.91 124.463C383.933 127.037 381.602 129.157 378.905 130.847C376.208 132.536 373.283 133.795 370.141 134.645C366.987 135.485 363.856 135.916 360.747 135.916C356.496 135.916 352.451 135.11 348.623 133.5C344.784 131.89 341.447 129.679 338.601 126.867C335.756 124.054 333.493 120.675 331.825 116.74C330.157 112.805 329.323 108.508 329.323 103.847C329.323 98.9485 330.271 94.492 332.168 90.4665C334.065 86.4523 336.567 83.0164 339.687 80.1588C342.795 77.3013 346.406 75.1127 350.509 73.5932C354.611 72.0624 358.896 71.3026 363.376 71.3026C368.084 71.3026 372.312 72.2325 376.071 74.0695C379.831 75.9178 383.042 78.4465 385.693 81.667C388.344 84.8761 390.378 88.5955 391.784 92.8138C393.189 97.0321 393.886 101.557 393.886 106.376H393.898ZM376.471 100.23C376.323 98.064 375.9 95.9662 375.214 93.9591C374.529 91.952 373.58 90.183 372.369 88.6522C371.158 87.1213 369.695 85.8966 367.981 84.9781C366.278 84.0596 364.278 83.5947 362.004 83.5947C359.73 83.5947 357.753 84.037 356.085 84.9214C354.417 85.8059 353.011 86.9966 351.868 88.4821C350.726 89.9676 349.8 91.6912 349.08 93.6643C348.36 95.6373 347.812 97.6671 347.423 99.7536L376.46 100.241L376.471 100.23Z" fill="#EED272"/>
<path d="M163.559 57.8084L164.999 136.414L228.306 132.173L237.505 130.166L225.175 52.5128L163.559 57.8084Z" fill="#2F2830"/>
<path d="M231.711 117.523C233.06 118.203 233.779 119.155 233.882 120.403C234.088 122.818 232.385 124.995 228.797 126.934C225.209 128.873 221.827 129.973 218.661 130.234C216.17 130.438 214.33 130.098 213.119 129.214C212.148 128.499 211.565 127.388 211.359 125.857C211.153 124.326 210.936 122.682 210.719 120.924C210.491 119.167 210.308 117.568 210.148 116.139C209.988 114.71 209.531 113.508 208.765 112.556C208 111.603 207.314 111.048 206.697 110.9C206 110.696 204.126 110.719 201.075 110.968C198.024 111.218 195.692 111.705 194.081 112.431C192.481 113.225 191.156 116.389 190.093 121.934C189.819 123.272 189.659 124.009 189.59 124.145C188.059 130.257 183.374 133.636 175.535 134.282C171.844 134.589 169.913 133.795 169.764 131.901C169.65 130.529 170.13 128.975 171.192 127.252L171.798 126.311C176.632 117.035 180.768 105.571 184.22 91.9064C187.659 78.2422 189.27 69.9757 189.019 67.0954C188.928 65.9841 188.642 65.043 188.15 64.2605C187.671 63.4781 187.408 62.8544 187.373 62.4008C187.099 59.135 190.196 57.2413 196.687 56.697C200.675 56.3682 204.183 56.7537 207.2 57.8537C210.216 58.9536 212.216 60.904 213.21 63.7162C218.181 85.0006 222.181 99.2658 225.22 106.512C227.494 112.828 229.654 116.502 231.723 117.511L231.711 117.523ZM200.732 83.2883C200.595 82.5059 200.298 82.143 199.841 82.177C199.612 82.1997 199.258 82.5172 198.789 83.1523C196.287 90.4549 195.155 95.4557 195.384 98.1318C195.452 98.9143 195.795 99.3792 196.412 99.5266C197.029 99.674 198.172 99.674 199.829 99.5379C201.486 99.4019 202.652 99.1184 203.349 98.6988C204.034 98.2792 204.343 97.6442 204.274 96.7938C203.189 91.1013 202.16 86.9397 201.178 84.3316L200.743 83.277L200.732 83.2883Z" fill="#F14174"/>
<path d="M194.813 9.94418L199.166 39.7106H226.512L219.37 8.09583L194.813 9.94418Z" fill="#4D5FCA"/>
<path d="M214.067 13.641L212.262 16.4192C211.759 17.1903 211.222 17.882 210.639 18.517L212.445 15.7388C213.028 15.1151 213.565 14.4121 214.067 13.641Z" fill="#C2CB16"/>
<path d="M204.72 13.3006L202.914 16.0788V15.6366L204.731 12.8584L204.72 13.3006Z" fill="#C2CB16"/>
<path d="M218.718 21.9528L216.913 24.731L216.341 24.765L218.147 21.9754L218.718 21.9528Z" fill="#C2CB16"/>
<path d="M204.137 15.2057L202.332 17.9839C202.709 17.4056 202.903 16.7706 202.914 16.0789L204.72 13.3007C204.709 14.0037 204.514 14.6274 204.137 15.2057Z" fill="#C2CB16"/>
<path d="M218.147 21.9756L216.341 24.7538C214.547 24.8218 212.868 24.9125 211.336 25.0033L213.142 22.2251C214.673 22.1343 216.353 22.0436 218.147 21.9756Z" fill="#C2CB16"/>
<path d="M219.69 33.7006L217.873 36.4901L217.438 36.6035L219.255 33.8253L219.69 33.7006Z" fill="#C2CB16"/>
<path d="M204.971 23.1775L203.166 25.9557C202.32 26.0918 201.44 26.2392 200.538 26.3979L202.343 23.6197C203.246 23.461 204.126 23.3022 204.971 23.1775Z" fill="#C2CB16"/>
<path d="M202.332 23.6198L200.526 26.4093L199.966 26.5113L201.783 23.7218L202.332 23.6198Z" fill="#C2CB16"/>
<path d="M201.783 23.7219L199.966 26.5114L199.029 19.719L200.835 16.9408L201.783 23.7219Z" fill="#C2CB16"/>
<path d="M205.623 28.1102L203.817 30.8884L203.154 25.967L204.971 23.1775L205.623 28.1102Z" fill="#C2CB16"/>
<path d="M218.147 21.9755C216.353 22.0435 214.673 22.1343 213.142 22.225L213.507 25.1279C213.656 26.1711 213.999 26.9536 214.513 27.4752C214.993 27.9515 215.816 28.1442 216.959 28.0195C217.427 27.9741 217.873 27.8834 218.295 27.7473L218.97 27.5546L218.993 28.2463C219.015 29.0287 219.084 29.8338 219.187 30.6276C219.244 31.0131 219.381 31.8976 219.61 33.2584L219.69 33.7006L219.255 33.8254C218.307 34.0975 217.484 34.3016 216.81 34.415C216.147 34.5284 215.279 34.6418 214.227 34.7552C211.508 35.0387 209.451 34.5624 208.114 33.3604C206.788 32.1698 205.954 30.4008 205.634 28.1102L204.983 23.1775C204.137 23.3136 203.257 23.461 202.355 23.6197L201.795 23.7218L200.858 16.9294L201.383 16.8727C202.4 16.7706 203.2 16.3738 203.794 15.682C204.411 14.9676 204.72 14.1852 204.743 13.2894V12.8471L215.164 11.7585L214.684 12.643C214.033 13.7997 213.29 14.8316 212.468 15.7161L217.804 15.1604L218.741 21.9415L218.17 21.9642L218.147 21.9755Z" fill="#C2CB16"/>
<path d="M219.255 33.8255L217.45 36.6037C216.501 36.8758 215.679 37.08 215.004 37.1934C214.342 37.3067 213.473 37.4201 212.422 37.5335C209.702 37.817 207.645 37.3408 206.308 36.1388C204.983 34.9481 204.148 33.1791 203.828 30.8885L205.634 28.1104C205.954 30.4009 206.788 32.1699 208.114 33.3606C209.462 34.5626 211.519 35.0388 214.227 34.7553C215.279 34.6419 216.158 34.5285 216.81 34.4152C217.484 34.2904 218.307 34.0976 219.255 33.8255Z" fill="#C2CB16"/>
<path d="M218.056 21.6581C216.022 21.7035 214.159 21.7715 212.479 21.8396L212.856 25.2868C212.993 26.4434 213.359 27.3393 213.965 27.9516C214.559 28.5753 215.507 28.8247 216.833 28.7113C217.336 28.666 217.816 28.5866 218.273 28.4505C218.273 29.2556 218.341 30.0834 218.433 30.8999C218.478 31.2968 218.604 32.1813 218.81 33.5533C217.861 33.8141 217.061 33.9956 216.41 34.0976C215.759 34.1997 214.902 34.2904 213.85 34.3811C211.279 34.6079 209.382 34.1543 208.171 33.0317C206.96 31.9091 206.217 30.2422 205.966 28.065L205.348 22.5766C204.32 22.7127 203.257 22.8715 202.137 23.0529L201.452 17.3151C202.595 17.213 203.52 16.7821 204.229 15.9883C204.926 15.2059 205.303 14.3101 205.337 13.3009L214.307 12.5184C213.37 14.1173 212.273 15.444 211.016 16.4646L217.37 15.909L218.056 21.6468V21.6581Z" fill="white"/>
<path d="M195.487 16.4417L174.678 17.5869L172.29 28.8698L177.5 47.6482L199.475 41.8877L199.029 28.5523L195.487 16.4417Z" fill="#0072BB"/>
<path d="M194.584 20.1385C193.944 21.2497 193.373 21.5672 192.87 21.091C192.367 20.6147 190.825 20.1611 188.265 19.7416H185.545C179.409 19.8436 176.243 23.3702 176.026 30.2987C176.026 30.5142 176.049 30.7296 176.061 30.9451C176.049 31.1832 176.038 31.4327 176.026 31.6821C176.289 38.5653 180.049 41.9218 187.305 41.7403C189.065 41.6383 190.573 41.2981 191.83 40.7198C193.087 40.1415 194.196 39.4611 195.156 38.6673L195.178 34.4603V33.0769C194.527 33.0769 194.013 33.4625 193.647 34.2336C193.27 35.0046 192.539 35.9458 191.442 37.0571C190.345 38.1684 188.951 38.7807 187.236 38.8828C185.374 38.7807 183.728 38.055 182.311 36.6942C180.906 35.3562 180.174 33.247 180.117 30.3668C180.22 27.5659 180.974 25.5701 182.391 24.3795C184.014 23.0074 185.762 22.3383 187.636 22.395C189.499 22.395 191.133 23.563 192.516 25.8876C193.099 27.5772 193.819 28.4504 194.653 28.4844C195.304 28.4277 195.636 27.9968 195.636 27.169V21.4992C195.636 20.6374 195.293 20.1838 194.596 20.1271L194.584 20.1385Z" fill="#002C47"/>
<path d="M187.305 40.3569C180.049 40.527 176.289 37.1705 176.026 30.2987C176.243 23.3702 179.409 19.8436 185.545 19.7416H188.265C190.825 20.1611 192.356 20.6147 192.87 21.091C193.373 21.5672 193.944 21.2497 194.584 20.1385C195.281 20.1952 195.624 20.6487 195.624 21.5106V25.7969C195.624 26.6134 195.293 27.0556 194.641 27.1123C193.807 27.0669 193.087 26.2051 192.504 24.5155C191.122 22.1909 189.488 21.0229 187.625 21.0229C185.762 20.9663 184.014 21.6353 182.38 23.0074C180.757 24.3795 179.992 26.8175 180.094 30.3101C180.152 33.2243 180.883 35.3562 182.3 36.7056C183.717 38.055 185.351 38.7807 187.225 38.8941C188.928 38.7921 190.333 38.1797 191.43 37.0684C192.527 35.9572 193.259 35.016 193.636 34.2449C194.013 33.4738 194.527 33.0883 195.178 33.0883L195.156 37.2952C194.196 38.089 193.087 38.7694 191.83 39.3477C190.573 39.926 189.065 40.2662 187.305 40.3683V40.3569Z" fill="#00578F"/>
<path d="M186.779 39.858C180.14 39.858 176.792 36.7282 176.541 30.2987C176.746 23.6424 179.694 20.3539 185.557 20.2518H188.219C191.396 20.7848 192.264 21.2384 192.504 21.4652C192.813 21.76 193.121 21.8167 193.327 21.8167C193.978 21.8167 194.47 21.2611 194.824 20.7168C194.973 20.8075 195.11 21.0116 195.11 21.5105V25.7969C195.11 26.5113 194.836 26.5793 194.641 26.602C194.058 26.5453 193.487 25.7742 192.996 24.3454V24.3001L192.95 24.2547C191.476 21.7713 189.682 20.5126 187.625 20.5126C187.568 20.5126 187.488 20.5126 187.419 20.5126C185.511 20.5126 183.705 21.227 182.048 22.6218C180.3 24.0959 179.477 26.6927 179.592 30.3327C179.649 33.3604 180.437 35.6283 181.946 37.0798C183.443 38.5085 185.202 39.291 187.191 39.4044H187.225H187.259C189.088 39.291 190.619 38.6219 191.796 37.4313C192.939 36.2746 193.693 35.2994 194.093 34.483C194.276 34.1088 194.47 33.8933 194.653 33.7686V37.0798C193.761 37.7828 192.744 38.3951 191.613 38.9168C190.425 39.4611 188.962 39.7899 187.282 39.892C187.134 39.892 186.962 39.892 186.791 39.892L186.779 39.858Z" fill="#FFDF07"/>
<path d="M194.321 34.483C194.436 34.2562 194.539 34.0975 194.653 33.9727V33.7233C194.47 33.848 194.276 34.0635 194.093 34.4377C193.693 35.2654 192.939 36.2293 191.796 37.3859C190.79 38.4178 189.522 39.0415 188.025 39.2797C189.636 39.0982 190.996 38.4632 192.059 37.3746C193.179 36.2293 193.921 35.2768 194.321 34.4717V34.483Z" fill="#E8A407"/>
<path d="M192.973 24.2887V24.334C193.396 25.4907 193.841 26.2164 194.31 26.4772C193.933 26.137 193.567 25.4907 193.236 24.5382V24.4928L193.19 24.4474C192.55 23.3702 191.853 22.5311 191.099 21.9301C191.762 22.5197 192.379 23.2908 192.939 24.2547L192.961 24.3L192.973 24.2887Z" fill="#E8A407"/>
<path d="M187.614 39.8012C187.465 39.8012 187.294 39.8012 187.134 39.8012C180.609 39.8012 177.306 36.7282 177.055 30.3894C177.26 23.8351 180.163 20.6033 185.922 20.5013H187.099C187.202 20.5013 187.316 20.4899 187.419 20.4899C187.488 20.4899 187.568 20.4899 187.625 20.4899C187.728 20.4899 187.831 20.4899 187.933 20.5013H188.539C191.659 21.0229 192.527 21.4652 192.756 21.6919C193.064 21.9754 193.361 22.0435 193.567 22.0435C194.196 22.0435 194.676 21.4992 195.03 20.9776C194.973 20.8301 194.904 20.7508 194.824 20.7054C194.47 21.2497 193.978 21.8053 193.327 21.8053C193.121 21.8053 192.813 21.7486 192.504 21.4538C192.264 21.227 191.385 20.7734 188.219 20.2405H185.557C179.694 20.3425 176.746 23.631 176.541 30.2873C176.792 36.7169 180.152 39.8466 186.779 39.8466C186.951 39.8466 187.122 39.8466 187.271 39.8466C187.796 39.8126 188.288 39.7559 188.768 39.6878C188.391 39.7332 188.013 39.7786 187.614 39.8012Z" fill="#E8A407"/>
<path d="M174.141 34.8684L171.432 25.7514L175.34 22.9619L176.22 14.3211L155.537 12.2573L152.737 40.0166L157.011 43.9741L172.289 44.3937L174.141 34.8684Z" fill="black"/>
<path d="M162.039 19.3332L160.988 29.7089L168.656 30.4687L168.347 33.5304L160.679 32.7706L160.394 35.5715L170.324 36.558L170.015 39.6197L157 38.327L159.262 15.988L172.278 17.2807L171.969 20.3198L162.039 19.3332Z" fill="#E3523D"/>
<path d="M297.932 49.4171L300.846 9.10493L272.061 5L268.347 44.3937L297.932 49.4171Z" fill="#358DBB"/>
<path d="M295.727 26.6132C295.761 27.3162 295.727 28.0533 295.612 28.8698L294.138 39.064L286.528 39.4723L287.888 30.1852C287.933 29.7769 287.979 29.4027 287.968 29.0739C287.899 27.7698 287.225 27.1348 285.945 27.2029C284.231 27.2936 283.077 28.4615 282.734 30.8542L281.42 39.7444L273.809 40.1526L277.454 15.0922L285.065 14.684L283.911 22.6897C285.362 21.4083 287.122 20.7733 288.802 20.6826C292.573 20.4785 295.521 22.4402 295.738 26.6132H295.727Z" fill="#CF5437" stroke="white" stroke-width="0.65" stroke-linecap="round" stroke-linejoin="round"/>
<path d="M153.595 28.0081C153.777 22.2703 155.811 16.7025 155.869 10.9647L135.014 11.9853C134.591 13.9584 134.18 15.9315 133.78 17.9159C132.98 21.8847 132.203 25.8536 131.403 29.8224C133.003 34.5284 132.191 40.2775 134.785 44.6433L154.76 46.1514C155.446 44.9154 155.32 43.4186 155.137 42.0352C154.532 37.3746 153.435 32.7254 153.583 28.0308L153.595 28.0081Z" fill="#26453A"/>
<path d="M155.674 13.9357C155.777 12.9491 155.857 11.9626 155.857 10.9647H155.674V13.9357Z" fill="#17382C"/>
<path d="M143.253 44.1103C141.733 44.1103 140.476 43.6113 139.516 42.6361C138.568 41.6609 138.088 40.2321 138.088 38.3951C138.088 37.6694 138.202 36.7736 138.419 35.6509L142.819 15.183L150.601 14.1398L145.744 36.7622C145.653 37.1251 145.607 37.4313 145.607 37.7261C145.607 38.2477 145.71 38.4291 146.35 38.4291C146.704 38.4291 147.013 38.3724 147.275 38.259L148.624 37.6807L148.51 39.1322C148.384 40.6857 147.801 41.9217 146.795 42.7949C145.79 43.6567 144.601 44.0989 143.242 44.0989L143.253 44.1103Z" fill="#050000"/>
<path d="M141.47 42.6474C139.871 42.6474 138.534 42.1258 137.528 41.0825C136.522 40.0506 136.02 38.5538 136.02 36.6374C136.02 35.9003 136.134 34.9818 136.362 33.8365L140.808 13.1645L149.207 12.0419L144.27 35.0725C144.179 35.4241 144.133 35.7076 144.133 35.9797C144.133 36.2519 144.179 36.3199 144.19 36.3312C144.19 36.3312 144.293 36.3879 144.59 36.3879C144.898 36.3879 145.173 36.3426 145.401 36.2405L147.207 35.4694L147.047 37.4085C146.91 39.0414 146.304 40.3454 145.23 41.2753C144.179 42.1938 142.91 42.6587 141.482 42.6587L141.47 42.6474Z" fill="#050000"/>
<path d="M138.385 40.2548C137.597 39.4497 137.208 38.2364 137.208 36.6262C137.208 35.9685 137.311 35.1067 137.528 34.0521L141.802 14.2078L147.71 13.4141L143.116 34.8118C143.013 35.2087 142.956 35.5943 142.956 35.9571C142.956 37.0117 143.504 37.5447 144.59 37.5447C145.07 37.5447 145.493 37.4653 145.87 37.3065C145.767 38.6219 145.287 39.6538 144.453 40.3796C143.619 41.1053 142.625 41.4682 141.482 41.4682C140.202 41.4682 139.173 41.0599 138.385 40.2548Z" fill="white"/>
<g filter="url(#filter1_d_39_266)">
<path d="M112.354 8.36792L106.994 42.1145L132.088 42.2052L137.162 10.5565L112.354 8.36792Z" fill="#70A447"/>
<path d="M122.341 20.3992L121.85 22.9052H130.957L129.906 28.0988H120.764L120.215 30.911H131.014L129.906 36.3426H111.999L116.307 14.9675H133.814L132.705 20.3992H122.329H122.341Z" fill="white"/>
</g>
<path d="M78.3805 6.28137L73.9696 44.303H111.737L111.382 7.58542L78.3805 6.28137Z" fill="#FFB931"/>
<path d="M93.0874 40.6971C88.8822 40.6971 84.7912 39.7332 82.1515 38.1344L81.363 37.6581L85.4083 29.9925L86.2996 30.5028C88.7222 31.8862 91.2819 32.5893 93.9216 32.5893C95.27 32.5893 95.8756 32.3512 96.0699 32.2038C95.6699 31.8976 94.2872 31.5574 93.3502 31.3306C89.8878 30.4688 84.6655 29.1648 84.6655 23.7218C84.6655 17.6664 89.8306 13.7543 97.8297 13.7543C101.601 13.7543 104.983 14.5367 107.349 15.9428L108.137 16.4077L104.32 24.0733L103.395 23.495C101.704 22.4517 99.5438 21.8734 97.3155 21.8734C95.4414 21.8734 94.8129 22.395 94.7558 22.5198C94.9729 22.7466 96.5613 23.1208 97.6126 23.3702C101.052 24.1867 106.24 25.4227 106.24 30.809C106.24 36.819 101.075 40.7084 93.0759 40.7084L93.0874 40.6971Z" fill="#050000"/>
<path d="M91.099 39.0528C86.8366 39.0528 82.6885 38.0776 79.9803 36.4333L78.929 35.787L83.2713 27.5431L84.4712 28.2235C86.8366 29.5842 89.3506 30.2646 91.9217 30.2646C92.4702 30.2646 92.8816 30.2192 93.1787 30.1625C92.6302 29.9811 91.876 29.7883 91.2704 29.6409C87.9336 28.8131 82.3343 27.4184 82.3343 21.7146C82.3343 15.4665 87.6365 11.4296 95.8298 11.4296C99.658 11.4296 103.098 12.2233 105.52 13.6635L106.571 14.2871L102.458 22.5423L101.212 21.7713C99.578 20.7507 97.4754 20.1951 95.3156 20.1951C94.4357 20.1951 93.8415 20.3198 93.4872 20.4445C94.0586 20.66 94.9728 20.8754 95.7041 21.0455C99.0295 21.8393 104.595 23.1547 104.595 28.8131C104.595 34.9252 99.1666 39.0301 91.099 39.0301V39.0528Z" fill="#050000"/>
<path d="M80.6774 35.3222L83.8084 29.3803C86.4938 30.9111 89.2364 31.6029 91.9218 31.6029C94.0244 31.6029 95.1214 31.0586 95.1214 30.2081C95.1214 27.6794 83.6713 29.1535 83.6713 21.7488C83.6713 16.3171 88.2422 12.7678 95.8413 12.7678C99.418 12.7678 102.618 13.4822 104.857 14.8203L101.932 20.6942C100.001 19.5035 97.6697 18.9139 95.3271 18.9139C92.9845 18.9139 91.7846 19.6963 91.7846 20.5128C91.7846 23.1435 103.269 21.4653 103.269 28.836C103.269 34.1656 98.5953 37.7489 91.099 37.7489C86.8024 37.7489 82.9857 36.7283 80.6774 35.3222Z" fill="white"/>
<path d="M266.884 50.0522C270.724 35.9231 273.306 20.7735 276.997 6.599C265.787 7.30205 253.286 8.14118 242.11 7.05258C239.116 18.7097 237.036 30.6389 235.893 42.6588C246.692 44.734 256.097 47.9771 266.896 50.0522H266.884Z" fill="#358DBB"/>
<path d="M243.995 42.2052L244.909 39.1662L247.926 38.0776L253.366 20.5806H251.034L246.235 26.2958L241.824 26.069L246.806 13.5728H250.166L251.354 15.251H267.821L270.084 13.5728H273.649L271.775 26.2277H267.718L266.69 20.5806H263.639L258.119 38.3157L260.656 39.3136L259.822 42.2052H243.995Z" fill="#231F20"/>
<path d="M241.973 40.8332L243.035 37.3179L246.052 36.218L251.343 19.2086H249.515L244.704 24.9351L239.767 24.6857L244.955 11.6565H248.658L249.846 13.3348H266.073L268.335 11.6565H272.312L270.358 24.8558H265.833L264.804 19.2086H262.187L256.794 36.5128L259.331 37.4994L258.371 40.8332H241.973Z" fill="#FFD06A"/>
<path d="M266.918 18.1086H246.681L249.8 17.1448L244.201 23.8124L241.356 23.665L245.709 12.745H248.075L249.732 15.0809L247.035 14.4233H268.598L265.57 15.0809L268.712 12.745H271.044L269.41 23.7557H266.758L265.49 16.7819L266.918 18.1086ZM253.366 16.3963H261.902L255.434 37.1478L257.982 38.1456L257.525 39.7332H243.435L243.915 38.1456L246.932 37.057L253.354 16.3963H253.366Z" fill="#0F4A54"/>
<path d="M329 42.4905L330.34 65.4201L382.429 70.0965L394 49.1723L387.438 34.9042L329 42.4905Z" fill="#1C323D"/>
<path d="M335.144 50.3158L335.844 60.1208L372.905 57.9107L368.647 72.9041L386.567 53.0465L365.976 39.5123L372.359 52.6199L335.144 50.3158Z" fill="#E2255F"/>
<path d="M335.793 47.8495L336.484 57.6631L373.554 55.4444L369.295 70.4463L387.216 50.5888L366.624 37.0546L373.007 50.1621L335.793 47.8495Z" fill="#FFDF07"/>
<path d="M314.41 12.5181L335.608 11.5203L336.03 39.563L311.336 40.9691L310.811 26.4431L314.41 12.5181Z" fill="#2F2830"/>
<path d="M329.848 19.8435C329.083 19.9002 328.523 19.3899 328.146 18.29C327.037 18.3807 325.837 18.891 324.569 19.8208C323.769 20.4105 323.243 20.9321 322.992 21.397C322.729 21.8619 322.603 22.2135 322.592 22.4629C322.592 22.7124 322.683 22.9165 322.866 23.0753C323.049 23.234 323.312 23.3814 323.643 23.5062C323.975 23.6309 324.352 23.767 324.786 23.8804C327.06 24.5041 328.5 24.9463 329.106 25.2071C330.328 25.7174 331.242 26.3184 331.882 26.9988C332.477 27.6791 332.819 28.643 332.899 29.8904C332.956 30.9223 332.808 31.8181 332.442 32.5552C332.077 33.3036 331.562 33.9839 330.922 34.5963C330.283 35.2086 329.551 35.7643 328.74 36.2632C327.928 36.7621 327.071 37.2044 326.157 37.5899C325.243 37.9755 324.34 38.3043 323.46 38.5765C321.712 39.0981 320.215 39.4043 318.97 39.5063C316.696 39.6878 314.913 39.4043 313.622 38.6558C313.142 38.3724 312.707 37.6013 312.342 36.3426C312.045 35.2993 311.873 34.4375 311.839 33.7572C311.793 33.0768 311.816 32.6912 311.885 32.6119C311.953 32.5325 312.113 32.5211 312.353 32.5665C312.593 32.6119 312.913 32.7026 313.313 32.8273L314.741 33.2922C316.947 33.9499 319.244 34.1881 321.644 34.0066C323.415 33.8706 324.889 33.5077 326.089 32.918C326.797 32.5665 327.163 32.2036 327.186 31.8294C327.186 31.5006 326.603 31.1491 325.403 30.7635C324.855 30.5821 324.226 30.3893 323.506 30.1965C320.021 29.1873 317.918 28.5296 317.198 28.2234C316.478 27.9059 315.998 27.6224 315.77 27.3503C315.541 27.0781 315.347 26.7833 315.187 26.4431C314.89 25.7854 314.73 25.1504 314.684 24.5381C314.65 23.9257 314.639 23.4495 314.661 23.1206C314.684 22.7804 314.73 22.4743 314.787 22.1795C314.913 21.5898 315.096 21.1702 315.324 20.9321C317.198 19.0611 320.021 17.3375 323.792 15.7386C327.14 14.3098 329.917 13.5047 332.122 13.3232C332.568 13.2892 332.911 13.3799 333.151 13.5954C333.562 14.0036 333.756 14.4572 333.745 14.9675C333.734 15.4664 333.654 15.9427 333.539 16.3736C333.414 16.8045 333.254 17.2014 333.048 17.5642C332.842 17.9158 332.614 18.2333 332.351 18.5168C332.088 18.7889 331.825 19.027 331.54 19.2198C330.968 19.594 330.408 19.8095 329.86 19.8548L329.848 19.8435Z" fill="#F1B9A1"/>
<path d="M297.189 11.3162C298.469 11.645 311.268 11.3162 311.268 11.3162V44.2803H298.858L297.189 11.3162Z" fill="#1C323D"/>
<path d="M308.411 40.1527H301.612V39.495H302.914V15.3077H301.612V14.65H308.411V15.3077H307.108V39.4837H308.411V40.1414V40.1527Z" fill="#8C72C9"/>
<path d="M304.846 26.0462L305.006 16.2828L305.166 26.0462H304.846Z" fill="white"/>
<path d="M305.166 28.8925L305.006 38.6672L304.846 28.8925H305.166Z" fill="white"/>
<path d="M305.005 27.9738C305.271 27.9738 305.485 27.7605 305.485 27.4975C305.485 27.2345 305.271 27.0212 305.005 27.0212C304.74 27.0212 304.526 27.2345 304.526 27.4975C304.526 27.7605 304.74 27.9738 305.005 27.9738Z" fill="white"/>
</g>
<defs>
<filter id="filter0_d_39_266" x="0" y="0" width="410" height="186" filterUnits="userSpaceOnUse" color-interpolation-filters="sRGB">
<feFlood flood-opacity="0" result="BackgroundImageFix"/>
<feColorMatrix in="SourceAlpha" type="matrix" values="0 0 0 0 0 0 0 0 0 0 0 0 0 0 0 0 0 0 127 0" result="hardAlpha"/>
<feOffset dy="5"/>
<feGaussianBlur stdDeviation="5"/>
<feComposite in2="hardAlpha" operator="out"/>
<feColorMatrix type="matrix" values="0 0 0 0 0 0 0 0 0 0 0 0 0 0 0 0 0 0 0.75 0"/>
<feBlend mode="normal" in2="BackgroundImageFix" result="effect1_dropShadow_39_266"/>
<feBlend mode="normal" in="SourceGraphic" in2="effect1_dropShadow_39_266" result="shape"/>
</filter>
<filter id="filter1_d_39_266" x="105.294" y="6.66792" width="36.9678" height="40.6373" filterUnits="userSpaceOnUse" color-interpolation-filters="sRGB">
<feFlood flood-opacity="0" result="BackgroundImageFix"/>
<feColorMatrix in="SourceAlpha" type="matrix" values="0 0 0 0 0 0 0 0 0 0 0 0 0 0 0 0 0 0 127 0" result="hardAlpha"/>
<feOffset dx="1.7" dy="1.7"/>
<feGaussianBlur stdDeviation="1.7"/>
<feColorMatrix type="matrix" values="0 0 0 0 0.0313726 0 0 0 0 0.0156863 0 0 0 0 0.109804 0 0 0 0.3 0"/>
<feBlend mode="normal" in2="BackgroundImageFix" result="effect1_dropShadow_39_266"/>
<feBlend mode="normal" in="SourceGraphic" in2="effect1_dropShadow_39_266" result="shape"/>
</filter>
</defs>
</svg>
